<svg height="472pt" viewBox="0 -1 472.43104 472" width="472pt" xmlns="http://www.w3.org/2000/svg" xmlns:xlink="http://www.w3.org/1999/xlink"><linearGradient id="a"><stop offset="0" stop-color="#00efd1"/><stop offset="1" stop-color="#00acea"/></linearGradient><linearGradient id="b" gradientUnits="userSpaceOnUse" x1="336.964622" x2="336.964622" xlink:href="#a" y1="13.16952" y2="472.25452"/><linearGradient id="c" gradientUnits="userSpaceOnUse" x1="398.425622" x2="398.425622" xlink:href="#a" y1="13.16952" y2="472.25452"/><linearGradient id="d" gradientUnits="userSpaceOnUse" x1="236.212622" x2="236.212622" xlink:href="#a" y1="13.16952" y2="472.25452"/><path d="m313.386719 208.675781c2.640625 0 4.679687-.910156 5.277343-3.191406l4.5625-16.027344h27.476563l4.5625 16.027344c.597656 2.28125 2.640625 3.15625 5.277344 3.15625 4.203125 0 9.839843-2.742187 9.839843-6.464844-.03125-.402343-.113281-.804687-.238281-1.1875l-23.160156-75.476562c-1.078125-3.597657-5.519531-5.273438-10.078125-5.273438-4.441406 0-8.878906 1.679688-9.960938 5.277344l-23.160156 75.480469c-.113281.390625-.195312.792968-.238281 1.199218 0 3.839844 5.640625 6.480469 9.839844 6.480469zm23.519531-68.058593 10.4375 36.839843h-20.878906zm0 0" fill="url(#b)"/><path d="m398.425781 208.675781c3.839844 0 8-1.679687 8-4.921875v-78c0-3.359375-4.160156-4.800781-8-4.800781-3.960937 0-8 1.441406-8 4.800781v78c0 3.242188 4.039063 4.921875 8 4.921875zm0 0" fill="url(#c)"/><path d="m464.851562 73.457031h-61.109374c-33.671876-44-92.722657-73.242187-151.710938-73.242187-45.921875 0-92.03125 17.75-126.507812 48.484375-35.121094 31.3125-54.746094 72.21875-55.4375 115.308593l-68.847657 108.960938c-1.558593 2.503906-1.652343 5.652344-.246093 8.242188 1.394531 2.578124 4.074218 4.203124 7.007812 4.246093h62.757812l.71875 71.464844c.277344 26.28125 21.664063 47.445313 47.949219 47.449219.503907 0 .78125-.019532 1.289063-.035156l55.710937-1.730469v59.851562c0 4.417969 4.039063 8 8.457031 8h224.367188c4.402344 0 7.976562-3.554687 8-7.957031l.847656-150.925781c1.296875-11.644531 3.238282-25.425781 5.300782-39.753907.941406-6.558593 1.90625-13.363281 2.851562-20.363281h38.601562c2.027344.089844 4-.671875 5.4375-2.101562 1.441407-1.429688 2.214844-3.398438 2.136719-5.425781v-161.988282c0-4.421875-3.15625-8.484375-7.574219-8.484375zm-57.292968 196.089844c-2.101563 14.632813-4.085938 28.570313-5.410156 40.570313-.03125.292968-.046876.59375-.046876.890624l-.804687 143.449219h-208.871094v-52.34375l56.152344-1.722656c4.4375-.128906 7.945313-3.804687 7.863281-8.242187-.054687-2.113282-.945312-4.117188-2.480468-5.574219-1.539063-1.453125-3.589844-2.234375-5.703126-2.175781l-127.832031 3.933593c-8.59375.261719-16.933593-2.945312-23.136719-8.902343-6.199218-5.957032-9.742187-14.160157-9.824218-22.761719l-.792969-79.382813c-.050781-4.371094-3.632813-7.875-8-7.828125h-56.152344l62.3125-98.679687c.808594-1.292969 1.238281-2.792969 1.238281-4.320313 0-39.324219 17.792969-76.867187 50.097657-105.671875 31.585937-28.15625 73.816406-44.558594 115.863281-44.558594 49.742188 0 99.453125 22.230469 131.027344 57.230469h-136.101563c-4.417969 0-7.53125 4.0625-7.53125 8.484375v161.988282c-.085937 2.023437.679688 3.992187 2.109375 5.421874 1.433594 1.429688 3.402344 2.195313 5.421875 2.105469h32.46875v39.515625c.070313 3.03125 1.8125 5.773438 4.527344 7.121094 2.734375 1.4375 6.0625 1.09375 8.449219-.867188l63.222656-45.769531h54.464844c-.839844 7-1.695313 12.257813-2.53125 18.089844zm48.867187-34.089844h-103.378906c-1.753906.082031-3.445313.691407-4.847656 1.746094l-52.773438 38.144531v-31.417968c0-4.417969-3.238281-8.472657-7.65625-8.472657h-32.34375v-146h201zm0 0" fill="url(#d)"/></svg>