<svg height="465pt" viewBox="0 0 465 465.05861" width="465pt" xmlns="http://www.w3.org/2000/svg" xmlns:xlink="http://www.w3.org/1999/xlink"><linearGradient id="a"><stop offset="0" stop-color="#00efd1"/><stop offset="1" stop-color="#00acea"/></linearGradient><linearGradient id="b" gradientUnits="userSpaceOnUse" x1="425.790615" x2="425.790615" xlink:href="#a" y1="-5.703694" y2="459.352306"/><linearGradient id="c" gradientUnits="userSpaceOnUse" x1="39.318615" x2="39.318615" xlink:href="#a" y1="-5.703694" y2="459.352306"/><linearGradient id="d" gradientUnits="userSpaceOnUse" x1="232.554615" x2="232.554615" xlink:href="#a" y1="-5.703694" y2="459.352306"/><linearGradient id="e" gradientUnits="userSpaceOnUse" x1="369.192615" x2="369.192615" xlink:href="#a" y1="-5.703694" y2="459.352306"/><linearGradient id="f" gradientUnits="userSpaceOnUse" x1="95.916615" x2="95.916615" xlink:href="#a" y1="-5.703694" y2="459.352306"/><linearGradient id="g" gradientUnits="userSpaceOnUse" x1="199.994615" x2="199.994615" xlink:href="#a" y1="-5.703694" y2="459.352306"/><linearGradient id="h" gradientUnits="userSpaceOnUse" x1="172.692615" x2="172.692615" xlink:href="#a" y1="-5.703694" y2="459.352306"/><linearGradient id="i" gradientUnits="userSpaceOnUse" x1="200.267615" x2="200.267615" xlink:href="#a" y1="-5.703694" y2="459.352306"/><linearGradient id="j" gradientUnits="userSpaceOnUse" x1="265.114615" x2="265.114615" xlink:href="#a" y1="-5.703694" y2="459.352306"/><linearGradient id="k" gradientUnits="userSpaceOnUse" x1="292.416615" x2="292.416615" xlink:href="#a" y1="-5.703694" y2="459.352306"/><linearGradient id="l" gradientUnits="userSpaceOnUse" x1="264.842615" x2="264.842615" xlink:href="#a" y1="-5.703694" y2="459.352306"/><path d="m435.855469 200.082031c-3.128907-3.117187-8.195313-3.113281-11.316407.019531-3.121093 3.128907-3.113281 8.195313.015626 11.316407l13.164062 13.113281h-43.21875c-4.417969 0-8 3.578125-8 8 0 4.417969 3.582031 8 8 8h43.21875l-13.15625 13.109375c-3.132812 3.121094-3.140625 8.1875-.019531 11.316406 3.121093 3.132813 8.1875 3.140625 11.316406.019531l26.871094-26.78125c1.507812-1.5 2.355469-3.539062 2.355469-5.664062 0-2.128906-.847657-4.167969-2.355469-5.667969zm0 0" fill="url(#b)"/><path d="m27.390625 240.53125h43.21875c4.417969 0 8-3.582031 8-8 0-4.421875-3.582031-8-8-8h-43.21875l13.15625-13.113281c3.132813-3.121094 3.136719-8.1875.019531-11.316407-3.121094-3.132812-8.1875-3.136718-11.316406-.019531l-26.867188 26.78125c-1.507812 1.5-2.351562 3.539063-2.351562 5.667969 0 2.125.84375 4.164062 2.351562 5.664062l26.871094 26.78125c3.128906 3.121094 8.195313 3.113282 11.316406-.019531 3.121094-3.128906 3.113282-8.195312-.015624-11.316406zm0 0" fill="url(#c)"/><path d="m253.667969 424.535156-13.113281 13.15625v-43.214844c0-4.417968-3.582032-8-8-8-4.417969 0-8 3.582032-8 8v43.214844l-13.113282-13.15625c-3.121094-3.128906-8.1875-3.136718-11.316406-.015625-3.128906 3.121094-3.136719 8.1875-.015625 11.316407l26.777344 26.871093c1.503906 1.503907 3.542969 2.351563 5.667969 2.351563s4.164062-.847656 5.664062-2.351563l26.78125-26.871093c3.121094-3.128907 3.113281-8.195313-.015625-11.316407-3.128906-3.121093-8.195313-3.113281-11.316406.015625zm0 0" fill="url(#d)"/><path d="m211.441406 40.523438 13.113282-13.15625v43.214843c0 4.417969 3.582031 8 8 8 4.417968 0 8-3.582031 8-8v-43.214843l13.113281 13.15625c3.121093 3.128906 8.1875 3.136718 11.316406.015624 3.128906-3.121093 3.136719-8.1875.015625-11.316406l-26.78125-26.871094c-1.5-1.503906-3.539062-2.351562-5.664062-2.351562s-4.164063.847656-5.667969 2.351562l-26.777344 26.878907c-3.121094 3.128906-3.113281 8.195312.015625 11.316406s8.195312 3.113281 11.316406-.015625zm0 0" fill="url(#d)"/><path d="m391.253906 345.53125h-.011718c-2.113282-.019531-4.144532.808594-5.644532 2.296875s-2.34375 3.515625-2.34375 5.628906l.03125 18.53125-30.558594-30.578125c-3.121093-3.125-8.183593-3.128906-11.304687-.007812-3.125 3.121094-3.128906 8.183594-.007813 11.304687l30.558594 30.707031-18.578125.117188h-.015625c-2.101562-.035156-4.132812.773438-5.632812 2.246094-1.503906 1.472656-2.355469 3.484375-2.367188 5.585937-.007812 4.429688 3.5625 8.03125 7.988282 8.058594l37.9375.109375h.011718c4.445313-.113281 7.996094-3.746094 8-8.195312l-.0625-37.878907c-.007812-2.113281-.855468-4.136719-2.355468-5.625-1.5-1.484375-3.53125-2.316406-5.644532-2.300781zm0 0" fill="url(#e)"/><path d="m73.855469 119.53125h.011719c2.113281.015625 4.144531-.8125 5.644531-2.300781s2.34375-3.515625 2.34375-5.628907l-.03125-18.53125 30.558593 30.578126c3.121094 3.125 8.179688 3.128906 11.304688.007812s3.128906-8.183594.007812-11.304688l-30.558593-30.710937 18.578125-.109375h.015625c2.101562.03125 4.132812-.777344 5.632812-2.25 1.503907-1.472656 2.355469-3.484375 2.367188-5.585938.007812-4.429687-3.5625-8.03125-7.988281-8.058593l-37.9375-.105469h-.011719c-4.449219.109375-7.996094 3.742188-8 8.191406l.0625 37.878906c.007812 2.113282.855469 4.136719 2.355469 5.625 1.5 1.484376 3.53125 2.316407 5.644531 2.304688zm0 0" fill="url(#f)"/><path d="m112.382812 341.386719-30.558593 30.558593.03125-18.488281c.003906-2.113281-.839844-4.140625-2.339844-5.628906s-3.53125-2.316406-5.644531-2.296875h-.015625c-2.109375-.023438-4.140625.800781-5.644531 2.285156-1.5 1.480469-2.347657 3.503906-2.355469 5.613282l-.066407 37.894531c-.003906 2.152343.835938 4.222656 2.34375 5.765625 1.492188 1.527344 3.523438 2.402344 5.660157 2.441406h.011719l37.9375-.183594c2.847656.027344 5.488281-1.472656 6.917968-3.933594 1.433594-2.464843 1.429688-5.503906-.003906-7.960937-1.4375-2.460937-4.082031-3.957031-6.925781-3.921875h-.015625l-18.578125-.121094 30.5625-30.636718c3.101562-3.128907 3.101562-8.179688-.007813-11.304688-3.105468-3.128906-8.15625-3.164062-11.308594-.082031zm0 0" fill="url(#f)"/><path d="m347.070312 126.015625c2.121094.003906 4.15625-.839844 5.65625-2.34375l30.558594-30.558594-.03125 18.488281c-.003906 2.113282.839844 4.140626 2.339844 5.628907s3.53125 2.316406 5.644531 2.300781h.015625c2.109375.019531 4.140625-.804688 5.640625-2.289062 1.503907-1.480469 2.351563-3.503907 2.359375-5.613282l.0625-37.894531c0-2.121094-.84375-4.15625-2.347656-5.652344-1.503906-1.5-3.542969-2.335937-5.664062-2.328125l-37.9375.070313c-2.855469-.078125-5.527344 1.40625-6.976563 3.867187-1.449219 2.460938-1.449219 5.515625.003906 7.976563 1.453125 2.460937 4.128907 3.9375 6.984375 3.855469h.015625l18.574219.121093-30.558594 30.632813c-2.28125 2.300781-2.964844 5.746094-1.730468 8.746094 1.234374 2.996093 4.148437 4.960937 7.390624 4.988281zm0 0" fill="url(#e)"/><path d="m202.027344 180.621094c1.320312.238281 2.664062.355468 4.003906.355468 2.402344-.011718 4.789062-.363281 7.089844-1.046874 2.785156-.761719 4.9375-2.96875 5.640625-5.769532.699219-2.796875-.160157-5.757812-2.253907-7.746094-2.09375-1.984374-5.09375-2.691406-7.851562-1.84375-1.230469.390626-2.535156.492188-3.8125.300782-3.78125-.675782-7-4.890625-7.832031-10.246094-.414063-2.851562-2.320313-5.257812-5-6.304688-2.679688-1.050781-5.71875-.578124-7.953125 1.234376-2.238282 1.808593-3.328125 4.683593-2.855469 7.523437.601563 3.933594 1.941406 7.722656 3.949219 11.164063-1.390625 1.5-2.417969 3.296874-3 5.253906-.761719 2.628906-.675782 5.425781.238281 8 1.234375 3.59375 4.828125 5.820312 8.59375 5.324218 3.765625-.492187 6.664063-3.574218 6.925781-7.363281 1.332032.519531 2.710938.910157 4.117188 1.164063zm0 0" fill="url(#g)"/><path d="m197.101562 260.347656c-2.667968-3.523437-7.6875-4.214844-11.207031-1.550781-2.835937 2.199219-6.335937 3.363281-9.925781 3.300781-1.691406-.101562-3.351562-.527344-4.886719-1.246094-.5-.351562-1.035156-.640624-1.601562-.867187-3.59375-2.277344-6.113281-5.910156-6.988281-10.074219-.574219-2.8125-2.609376-5.101562-5.335938-6-2.722656-.898437-5.722656-.269531-7.855469 1.648438-2.132812 1.921875-3.074219 4.835937-2.46875 7.640625.871094 4.148437 2.554688 8.085937 4.960938 11.578125-1.914063 1.820312-3.355469 4.074218-4.203125 6.570312-2.050782 6.144532-.089844 12.832032 5.113281 17.449219 2.132813 1.945313 5.144531 2.589844 7.886719 1.691406 2.738281-.898437 4.785156-3.203125 5.351562-6.03125s-.4375-5.742187-2.621094-7.628906c-.171874-.144531-.320312-.320313-.441406-.515625.503906-.414062 1.109375-.6875 1.75-.800781 3.296875 1.488281 6.84375 2.359375 10.453125 2.566406.542969.03125 1.074219.046875 1.601563.046875 6.832031-.105469 13.453125-2.410156 18.871094-6.570312 3.519531-2.667969 4.214843-7.6875 1.546874-11.207032zm0 0" fill="url(#h)"/><path d="m196.933594 280.386719c-4.175782-1.441407-8.730469.777343-10.167969 4.957031-1.441406 4.175781.777344 8.730469 4.957031 10.167969 4.472656 1.542969 6.015625 3.019531 6.441406 3.523437-.058593.460938-.183593.910156-.371093 1.335938-2.792969 3.339844-2.398438 8.300781.882812 11.160156 3.285157 2.863281 8.253907 2.570312 11.179688-.652344 2.488281-3.050781 3.980469-6.792968 4.28125-10.71875.476562-5.007812-1.128907-14.230468-17.203125-19.773437zm0 0" fill="url(#i)"/><path d="m345.042969 324.945312c6.777343-7.914062 8.980469-18.769531 5.824219-28.699218 12.222656-8.015625 17.949218-19.695313 14.789062-31.199219-2.171875-7.914063-8.007812-14-13.042969-17.902344 2.9375-6.796875 3.691407-14.335937 2.160157-21.582031-2.273438-11-9.382813-20.824219-19.601563-27.210938.863281-6.753906-.683594-13.59375-4.375-19.320312-2.878906-4.265625-6.789063-7.734375-11.367187-10.089844.265624-.703125.507812-1.414062.730468-2.132812 3.609375-11.9375.988282-29.066406-13.304687-38.472656-4.398438-2.902344-9.320313-4.914063-14.492188-5.914063-3.203125-13.261719-14.648437-24.0625-29.453125-26.902344-10.839844-1.992187-22.027344.359375-31.148437 6.550781-8.90625-6.175781-19.914063-8.53125-30.570313-6.550781-14.589844 2.800781-25.519531 13.429688-28.523437 26.917969-5.144531 1.007812-10.042969 3.011719-14.421875 5.902344-14.292969 9.398437-16.914063 26.535156-13.296875 38.472656.214843.71875.457031 1.429688.726562 2.132812-4.578125 2.355469-8.488281 5.824219-11.367187 10.089844-3.691406 5.722656-5.238282 12.566406-4.375 19.320313-10.214844 6.386719-17.324219 16.214843-19.601563 27.210937-1.53125 7.242188-.777343 14.785156 2.160157 21.582032-5.035157 3.898437-10.871094 9.988281-13.042969 17.898437-3.160157 11.507813 2.5625 23.1875 14.789062 31.199219-3.15625 9.929687-.953125 20.789062 5.824219 28.703125 6.746094 7.867187 17.242188 11.351562 27.789062 11.347656 5.371094 0 10.707032-.894531 15.785157-2.640625 8.488281 4.914062 18.726562 5.78125 27.917969 2.363281 5.757812 8.472657 12.398437 11.207031 17.398437 11.902344 1.300781.175781 2.609375.265625 3.917969.265625 6.753906-.109375 13.3125-2.28125 18.800781-6.222656 5.773437 3.925781 12.5625 6.089844 19.542969 6.222656 1.320312.003906 2.640625-.085938 3.945312-.265625 8.351563-1.152344 14.152344-6.773437 17.816406-11.964844 4.558594 1.6875 9.425782 2.382813 14.277344 2.03125 4.972656-.386719 9.800782-1.875 14.128906-4.359375 5.105469 1.769532 10.472657 2.671875 15.875 2.671875 10.542969-.003906 21.039063-3.484375 27.785157-11.355469zm-133.902344 7.121094c-1.8125-.25-5.390625-1.863281-9-9.855468-.953125-2.121094-2.785156-3.71875-5.015625-4.382813-2.226562-.660156-4.632812-.320313-6.589844.933594-3.027344 2.054687-6.574218 3.203125-10.230468 3.316406 2.644531-3.53125 4.542968-7.566406 5.574218-11.859375 1.046875-4.289062-1.582031-8.621094-5.871094-9.671875-4.292968-1.046875-8.625 1.582031-9.671874 5.875-.75 3.351563-2.589844 6.363281-5.234376 8.558594-8.167968 6.671875-25.921874 7.671875-32.882812-.449219-4.128906-4.953125-4.492188-12.035156-.886719-17.382812 1.253907-1.949219 1.597657-4.347657.945313-6.574219-.652344-2.226563-2.238282-4.058594-4.347656-5.023438-7.175782-3.289062-14.898438-9.527343-13.046876-16.28125 1.578126-5.75 9.074219-10.980469 11.53125-12.171875 2.234376-.976562 3.902344-2.917968 4.527344-5.273437.628906-2.355469.148438-4.867188-1.308594-6.824219-3.523437-4.613281-4.847656-10.535156-3.625-16.207031 1.453126-7.035157 6.316407-13.402344 13.34375-17.457031 14.074219-8.136719 33.597657-4.570313 42.644532 7.789062 1.679687 2.328125 4.476562 3.574219 7.328125 3.269531 2.855469-.304687 5.328125-2.113281 6.480469-4.738281 1.152343-2.628906.808593-5.671875-.898438-7.976562-10.847656-14.832032-30.648438-21.410157-48.890625-17.722657.269531-1.445312.8125-2.820312 1.605469-4.058593 3.476562-5.367188 10.953125-6.820313 10.96875-6.824219 2.785156-.476563 5.113281-2.386719 6.125-5.027344 1.007812-2.636719.554687-5.613281-1.203125-7.828125-1.453125-1.796875-2.554688-3.851562-3.246094-6.054688-2.007813-6.636718-.324219-15.796874 6.78125-20.472656 10.433594-6.863281 23.808594-4.863281 34.078125 5.089844 2.03125 2.097656 5.042969 2.921875 7.859375 2.152344 2.816406-.769532 4.988281-3.011719 5.667969-5.851563.683594-2.839843-.238282-5.824219-2.398438-7.785156-6.308594-6.25-14.230468-10.621094-22.882812-12.625 2.75-6.035156 8.304687-10.320313 14.835937-11.453125 6.816407-1.308594 13.867188.386719 19.347657 4.648438v126.5c-1.335938-.671876-2.390626-1.101563-2.953126-1.316407-2.671874-1.035156-5.691406-.5625-7.921874 1.242188-2.226563 1.804687-3.320313 4.660156-2.863282 7.488281.457032 2.832031 2.390625 5.199219 5.070313 6.214844 2.519531.960937 7.390625 3.699218 8.667969 7.398437v64.679688c-2.5625 2.078125-7.457032 4.675781-12.417969 3.992187zm88.875-17.082031c-2.644531-2.195313-4.484375-5.207031-5.234375-8.5625-1.046875-4.289063-5.378906-6.917969-9.671875-5.871094-4.289063 1.050781-6.917969 5.378907-5.871094 9.671875 1.03125 4.289063 2.925781 8.324219 5.570313 11.851563-3.8125-.097657-7.523438-1.242188-10.726563-3.308594-1.957031-1.253906-4.363281-1.59375-6.589843-.933594-2.230469.664063-4.0625 2.261719-5.015626 4.378907-1.527343 3.386718-5.246093 9.269531-9.5 9.859374-5.136718.703126-10.671874-2.039062-13.417968-4.101562v-98.015625c.402344-1.128906.542968-2.335937.410156-3.527344-.066406-.589843-.03125-1.1875.101562-1.761719.773438-3.300781 5.324219-6.378906 9.492188-7.972656 4.128906-1.578125 6.191406-6.203125 4.613281-10.332031-1.578125-4.125-6.203125-6.191406-10.328125-4.613281-1.464844.5625-2.898437 1.207031-4.292968 1.933594v-87.542969c5.820312-4.363281 13.175781-6.140625 20.34375-4.917969 6.707031 1.214844 12.476562 5.457031 15.628906 11.5-8.570313 2.027344-16.414063 6.378906-22.671875 12.578125-3.132813 3.082031-3.191407 8.113281-.132813 11.269531 3.058594 3.152344 8.089844 3.25 11.269532.21875 10.269531-9.953125 23.644531-11.953125 34.074218-5.089844 7.105469 4.675782 8.792969 13.835938 6.785156 20.46875-.691406 2.207032-1.792968 4.261719-3.25 6.058594-1.753906 2.214844-2.210937 5.191406-1.199218 7.828125 1.011718 2.640625 3.339844 4.550781 6.125 5.027344.074218.011719 7.445312 1.480469 10.917968 6.75.816407 1.253906 1.378907 2.660156 1.652344 4.132813-18.242187-3.683594-38.042968 2.894531-48.890625 17.722656-1.707031 2.304687-2.046875 5.347656-.894531 7.976562 1.152344 2.625 3.625 4.433594 6.476562 4.738282 2.855469.304687 5.652344-.941407 7.332032-3.269532 9.042968-12.359375 28.570312-15.925781 42.644531-7.789062 7.027344 4.058594 11.886719 10.421875 13.34375 17.457031 1.222656 5.671875-.101563 11.59375-3.628906 16.207031-1.453125 1.957032-1.933594 4.46875-1.308594 6.824219.628906 2.355469 2.296875 4.296875 4.53125 5.273437 2.453125 1.191407 9.949219 6.421876 11.53125 12.171876 1.851563 6.753906-5.871094 12.992187-13.050781 16.28125-2.109375.964843-3.695313 2.796874-4.347656 5.023437-.652344 2.226563-.304688 4.625.949218 6.574219 3.601563 5.347656 3.238282 12.429687-.890625 17.378906-6.964843 8.125-24.714843 7.125-32.882812.453125zm0 0" fill="url(#d)"/><path d="m263.082031 180.621094c1.40625-.253906 2.785157-.644532 4.121094-1.164063.261719 3.789063 3.160156 6.867188 6.925781 7.363281 3.765625.492188 7.359375-1.734374 8.59375-5.324218.914063-2.574219.996094-5.371094.242188-7.992188-.585938-1.960937-1.613282-3.757812-3-5.261718 2.007812-3.4375 3.347656-7.226563 3.949218-11.164063.46875-2.839844-.621093-5.710937-2.859374-7.523437-2.234376-1.8125-5.269532-2.28125-7.949219-1.234376-2.679688 1.050782-4.589844 3.457032-5.003907 6.304688-.832031 5.359375-4.050781 9.570312-7.832031 10.246094-1.277343.195312-2.578125.09375-3.808593-.300782-2.753907-.824218-5.738282-.113281-7.820313 1.871094-2.082031 1.980469-2.941406 4.929688-2.246094 7.71875.691407 2.789063 2.828125 4.992188 5.59375 5.773438 2.300781.683594 4.6875 1.035156 7.089844 1.042968 1.34375 0 2.683594-.117187 4.003906-.355468zm0 0" fill="url(#j)"/><path d="m312.089844 243.730469c-4.324219-.910157-8.566406 1.859375-9.472656 6.183593-.878907 4.164063-3.398438 7.796876-6.992188 10.074219-.566406.226563-1.101562.515625-1.601562.867188-1.535157.722656-3.191407 1.144531-4.886719 1.246093-3.585938.0625-7.085938-1.101562-9.921875-3.300781-2.273438-1.796875-5.34375-2.226562-8.019532-1.121093-2.679687 1.109374-4.550781 3.578124-4.890624 6.457031-.339844 2.878906.902343 5.714843 3.25 7.417969 5.417968 4.160156 12.035156 6.460937 18.867187 6.566406.527344 0 1.058594-.015625 1.601563-.046875 3.609374-.207031 7.15625-1.078125 10.453124-2.566407.644532.113282 1.246094.382813 1.757813.789063-.117187.203125-.273437.382813-.449219.53125-2.148437 1.894531-3.117187 4.792969-2.542968 7.597656.570312 2.804688 2.597656 5.089844 5.316406 5.992188 2.714844.902343 5.707031.285156 7.84375-1.621094 5.199218-4.617187 7.164062-11.296875 5.109375-17.445313-.84375-2.496093-2.285157-4.753906-4.199219-6.570312 2.40625-3.492188 4.089844-7.429688 4.960938-11.578125.90625-4.324219-1.859376-8.566406-6.183594-9.472656zm0 0" fill="url(#k)"/><path d="m268.175781 280.386719c-11.121093 3.832031-18.035156 12.289062-17.207031 21.042969.390625 3.523437 1.890625 6.832031 4.28125 9.449218 2.9375 3.246094 7.941406 3.527344 11.222656.632813 3.285156-2.898438 3.632813-7.894531.777344-11.214844-.105469-.121094-.203125-.246094-.292969-.378906.375-.851563 2.238281-2.960938 6.429688-4.402344 4.175781-1.4375 6.394531-5.992187 4.957031-10.167969-1.441406-4.175781-5.992188-6.398437-10.171875-4.957031zm0 0" fill="url(#l)"/></svg>