<svg height="481pt" viewBox="-25 0 481 481.55811" width="481pt" xmlns="http://www.w3.org/2000/svg" xmlns:xlink="http://www.w3.org/1999/xlink"><linearGradient id="a"><stop offset="0" stop-color="#00efd1"/><stop offset="1" stop-color="#00acea"/></linearGradient><linearGradient id="b" gradientUnits="userSpaceOnUse" x1="180.674055" x2="180.674055" xlink:href="#a" y1="2.325111" y2="467.381111"/><linearGradient id="c" gradientUnits="userSpaceOnUse" x1="151.657055" x2="151.657055" xlink:href="#a" y1="2.325111" y2="467.381111"/><linearGradient id="d" gradientUnits="userSpaceOnUse" x1="180.963055" x2="180.963055" xlink:href="#a" y1="2.325111" y2="467.381111"/><linearGradient id="e" gradientUnits="userSpaceOnUse" x1="249.884055" x2="249.884055" xlink:href="#a" y1="2.325111" y2="467.381111"/><linearGradient id="f" gradientUnits="userSpaceOnUse" x1="278.901055" x2="278.901055" xlink:href="#a" y1="2.325111" y2="467.381111"/><linearGradient id="g" gradientUnits="userSpaceOnUse" x1="249.595055" x2="249.595055" xlink:href="#a" y1="2.325111" y2="467.381111"/><linearGradient id="h" gradientUnits="userSpaceOnUse" x1="215.279055" x2="215.279055" xlink:href="#a" y1="2.325111" y2="467.381111"/><path d="m182.921875 90.210938c1.375.246093 2.769531.367187 4.167969.367187 2.503906-.011719 4.992187-.378906 7.394531-1.089844 4.242187-1.230469 6.679687-5.671875 5.445313-9.914062-1.230469-4.242188-5.671876-6.683594-9.914063-5.449219-1.382813.441406-2.847656.554688-4.28125.335938-4.226563-.753907-7.816406-5.402344-8.730469-11.308594-.679687-4.367188-4.765625-7.355469-9.132812-6.679688-4.367188.679688-7.355469 4.765625-6.679688 9.132813.648438 4.246093 2.117188 8.324219 4.324219 12.011719-1.550781 1.589843-2.691406 3.535156-3.328125 5.660156-.777344 2.691406-.6875 5.554687.25 8.191406 1.273438 3.726562 5.070312 5.96875 8.949219 5.28125 3.878906-.683594 6.675781-4.09375 6.59375-8.03125 1.585937.679688 3.242187 1.179688 4.941406 1.492188zm0 0" fill="url(#b)"/><path d="m177.195312 175.742188c-2.664062-3.523438-7.683593-4.214844-11.207031-1.550782-3.105469 2.410156-6.945312 3.683594-10.875 3.613282-1.882812-.113282-3.726562-.589844-5.429687-1.402344-.515625-.363282-1.070313-.664063-1.65625-.898438-3.957032-2.492187-6.734375-6.480468-7.699219-11.054687-.566406-2.816407-2.601563-5.113281-5.332031-6.015625-2.726563-.902344-5.730469-.269532-7.863282 1.652344-2.136718 1.921874-3.074218 4.84375-2.460937 7.648437.9375 4.492187 2.785156 8.738281 5.433594 12.484375-2.125 1.921875-3.722657 4.355469-4.648438 7.070312-2.113281 6.335938-.085937 13.238282 5.292969 18.007813 3.304688 2.933594 8.359375 2.628906 11.292969-.675781 2.929687-3.304688 2.628906-8.359375-.675781-11.292969-.316407-.261719-.566407-.59375-.734376-.96875.621094-.75 1.511719-1.226563 2.480469-1.332031 3.5 1.597656 7.269531 2.53125 11.113281 2.746094.566407.03125 1.125.046874 1.675782.046874 7.148437-.109374 14.074218-2.519531 19.75-6.875 3.515625-2.667968 4.207031-7.679687 1.542968-11.203124zm0 0" fill="url(#c)"/><path d="m177.257812 197.210938c-4.167968-1.40625-8.691406.8125-10.125 4.972656-1.433593 4.160156.761719 8.699218 4.914063 10.15625 4.863281 1.675781 6.785156 3.421875 7.210937 4.066406-.0625.628906-.222656 1.246094-.480468 1.824219-2.917969 3.3125-2.597656 8.367187.714844 11.289062 3.3125 2.917969 8.363281 2.605469 11.285156-.707031 2.578125-3.164062 4.121094-7.039062 4.429687-11.105469.488281-5.175781-1.191406-14.722656-17.949219-20.496093zm0 0" fill="url(#d)"/><path d="m236.078125 89.488281c2.402344.710938 4.890625 1.078125 7.394531 1.089844 1.398438 0 2.792969-.121094 4.167969-.367187 1.699219-.3125 3.359375-.8125 4.949219-1.492188-.078125 3.929688 2.71875 7.335938 6.589844 8.019531 3.875.6875 7.667968-1.546875 8.949218-5.269531.933594-2.636719 1.023438-5.5.25-8.1875-.640625-2.128906-1.78125-4.074219-3.332031-5.664062 2.207031-3.683594 3.675781-7.765626 4.324219-12.011719.675781-4.367188-2.3125-8.453125-6.679688-9.132813-4.367187-.675781-8.453125 2.3125-9.132812 6.679688-.914063 5.898437-4.503906 10.554687-8.730469 11.308594-1.433594.21875-2.898437.105468-4.28125-.335938-4.242187-1.234375-8.679687 1.207031-9.914063 5.449219-1.234374 4.242187 1.203126 8.683593 5.445313 9.914062zm0 0" fill="url(#e)"/><path d="m253.359375 175.742188c-2.664063 3.523437-1.972656 8.539062 1.550781 11.207031 5.671875 4.355469 12.597656 6.769531 19.75 6.875.550782 0 1.109375-.011719 1.671875-.042969 3.847657-.21875 7.617188-1.148438 11.121094-2.75.945313.109375 1.820313.554688 2.460937 1.257812-.117187.417969-.371093.785157-.71875 1.042969-3.304687 2.933594-3.609374 7.988281-.675781 11.296875 2.933594 3.304688 7.988281 3.605469 11.292969.671875 5.378906-4.769531 7.40625-11.671875 5.289062-18.007812-.921874-2.710938-2.519531-5.144531-4.644531-7.070313 2.644531-3.746094 4.496094-7.992187 5.433594-12.480468.613281-2.808594-.328125-5.726563-2.460937-7.652344-2.136719-1.921875-5.136719-2.550782-7.867188-1.652344-2.726562.902344-4.761719 3.199219-5.328125 6.015625-.964844 4.574219-3.742187 8.566406-7.703125 11.054687-.582031.234376-1.140625.535157-1.652344.902344-1.703125.808594-3.546875 1.285156-5.429687 1.398438-3.929688.074218-7.769531-1.203125-10.878907-3.609375-3.519531-2.671875-8.539062-1.980469-11.210937 1.542969zm0 0" fill="url(#f)"/><path d="m253.300781 197.210938c-11.59375 3.996093-18.808593 12.773437-17.949219 21.84375.402344 3.640624 1.953126 7.058593 4.425782 9.757812 2.925781 3.3125 7.976562 3.625 11.289062.707031 3.3125-2.921875 3.632813-7.976562.710938-11.289062-.191406-.207031-.355469-.4375-.484375-.691407.195312-.835937 2.175781-3.460937 7.21875-5.199218 4.152343-1.457032 6.347656-5.996094 4.914062-10.15625-1.433593-4.160156-5.957031-6.378906-10.125-4.972656zm0 0" fill="url(#g)"/><path d="m422.710938 396.558594h-36.433594v-65.292969c0-4.417969-4-7.707031-8.414063-7.707031h-154.585937v-57.429688c3.808594 1.394532 7.828125 2.125 11.886718 2.160156 1.371094 0 2.742188-.089843 4.097657-.277343 8.863281-1.222657 14.976562-7.300781 18.800781-12.824219 4.878906 1.867188 10.109375 2.640625 15.316406 2.261719 5.285156-.410157 10.40625-2.007813 14.984375-4.675781 5.445313 1.917968 11.171875 2.898437 16.941407 2.902343 11.066406 0 22.074218-3.648437 29.148437-11.902343 7.175781-8.382813 9.445313-19.910157 5.976563-30.390626 13.023437-8.398437 19.15625-20.707031 15.832031-32.8125-2.378907-8.667968-8.785157-15.023437-14.019531-18.96875 3.226562-7.226562 4.082031-15.289062 2.441406-23.03125-2.40625-11.644531-9.984375-22.046874-20.863282-28.753906.84375-7.773437-.675781-14.660156-4.539062-20.527344-3.105469-4.585937-7.339844-8.296874-12.296875-10.769531.347656-.875.65625-1.757812.925781-2.648437 3.785156-12.515625 1.039063-30.46875-13.9375-40.324219-4.707031-3.113281-9.996094-5.246094-15.542968-6.277344-3.25-14.050781-15.3125-25.53125-30.949219-28.53125-11.171875-2.144531-22.800781.4375-32.800781 7.09375-9.460938-6.675781-21.222657-9.234375-32.601563-7.09375-15.433594 2.960938-26.964844 14.253907-30.015625 28.546875-5.523438 1.035156-10.785156 3.164063-15.472656 6.261719-14.980469 9.855469-17.726563 27.808594-13.9375 40.324219.265625.894531.574218 1.777344.921875 2.648437-4.957031 2.46875-9.191407 6.179688-12.296875 10.765625-3.863282 5.867188-5.382813 12.753906-4.539063 20.523438-10.878906 6.707031-18.460937 17.109375-20.859375 28.753906-1.636718 7.746094-.785156 15.808594 2.441406 23.035156-5.234374 3.941406-11.640624 10.300782-14.015624 18.964844-3.324219 12.109375 2.804687 24.414062 15.832031 32.816406-3.472657 10.476563-1.203125 22.007813 5.972656 30.390625 7.074219 8.253907 18.082031 11.898438 29.148437 11.898438 5.738282 0 11.4375-.96875 16.855469-2.867188 9.039063 5.3125 20.011719 6.21875 29.796875 2.457031 6.070313 9.105469 13.109375 12.023438 18.382813 12.75 1.359375.1875 2.726562.28125 4.097656.28125 4.433594-.03125 8.8125-.945312 12.886719-2.683593v57.953125h-154.582032c-4.417968 0-8.417968 3.289062-8.417968 7.707031v65.292969h-36.429688c-4.417968 0-7.570312 3.898437-7.570312 8.316406v68.246094c0 4.417968 3.152344 8.4375 7.570312 8.4375h87.746094c4.417969 0 7.683594-4.019532 7.683594-8.4375v-68.246094c0-4.417969-3.265625-8.316406-7.683594-8.316406h-35.316406v-57h147v57h-35.871094c-4.503906.136718-8.09375 3.808594-8.128906 8.316406v68.246094c.027344 4.53125 3.601562 8.242187 8.128906 8.4375h87.746094c4.527344-.195313 8.101562-3.90625 8.125-8.4375v-68.246094c-.03125-4.507812-3.621094-8.179688-8.125-8.316406h-35.875v-57h147v57h-35.3125c-4.417969 0-7.6875 3.898437-7.6875 8.316406v68.246094c0 4.417968 3.269531 8.4375 7.6875 8.4375h87.746094c4.417968 0 7.566406-4.019532 7.566406-8.4375v-68.246094c0-4.417969-3.148438-8.316406-7.566406-8.316406zm-178.246094-380.101563c7.5 1.351563 13.898437 6.207031 17.214844 13.066407-9.257813 2.054687-17.746094 6.691406-24.480469 13.371093-3.171875 3.074219-3.25 8.136719-.175781 11.3125 3.074218 3.171875 8.140624 3.25 11.3125.175781 6.835937-6.625 14.953124-9.96875 22.816406-9.832031.050781 0 .101562.007813.148437.007813h.101563c.046875 0 .101562-.007813.144531-.007813 4.863281.160157 9.582031 1.671875 13.632813 4.363281 7.757812 5.097657 9.597656 15.09375 7.414062 22.320313-.753906 2.402344-1.953125 4.644531-3.539062 6.601563-1.765626 2.203124-2.234376 5.171874-1.234376 7.8125 1 2.636718 3.320313 4.550781 6.101563 5.03125.082031.015624 8.226563 1.589843 12.046875 7.480468 1.007812 1.585938 1.652344 3.375 1.894531 5.242188-19.402343-4.199219-40.605469 2.6875-52.164062 18.480468-1.707031 2.308594-2.050781 5.351563-.894531 7.976563 1.152343 2.628906 3.625 4.4375 6.476562 4.742187 2.851562.300782 5.648438-.945312 7.332031-3.269531 9.753907-13.332031 30.8125-17.1875 45.980469-8.421875 7.589844 4.390625 12.847656 11.273438 14.421875 18.886719 1.332031 6.171875-.109375 12.617187-3.945313 17.628906-1.453124 1.960938-1.9375 4.476563-1.308593 6.832031.628906 2.359376 2.300781 4.300782 4.539062 5.273438 2.65625 1.273438 10.800781 6.945312 12.527344 13.261719 2.054687 7.484375-6.332031 14.316406-14.140625 17.890625-2.109375.96875-3.695312 2.800781-4.347656 5.027344-.652344 2.222656-.304688 4.625.949218 6.574218 3.949219 5.867188 3.546876 13.640625-.984374 19.070313-7.5625 8.820312-26.800782 7.765625-35.648438.539062-2.898438-2.398437-4.914062-5.695312-5.730469-9.367187-1.050781-4.292969-5.382812-6.921875-9.671875-5.871094-4.292968 1.050781-6.921875 5.378906-5.871094 9.671875 1.15625 4.816406 3.359376 9.316406 6.453126 13.183594-4.492188.152343-8.921876-1.09375-12.679688-3.5625-1.957031-1.253907-4.363281-1.59375-6.589844-.933594-2.230468.664063-4.058594 2.261719-5.015625 4.378906-2.070312 4.585938-6.054687 10.15625-10.472656 10.769531-5.785156.792969-11.960937-2.328124-14.800781-4.53125v-104.757812c.378906-1.101562.507812-2.273438.378906-3.433594-.078125-.683594-.042969-1.375.113281-2.042968.921875-3.929688 6.175781-7.214844 10.398438-8.828126 4.125-1.578124 6.191406-6.203124 4.613281-10.332031-1.578125-4.125-6.203125-6.191406-10.332031-4.613281-1.773438.683594-3.5 1.480469-5.167969 2.386719v-93.996094c6.808594-4.976563 14.738281-6.988281 22.183594-5.558594zm-51.984375 235.699219c-3.515625-.484375-7.058594-4.308594-9.972657-10.765625-.957031-2.117187-2.785156-3.714844-5.015624-4.378906-2.226563-.660157-4.632813-.320313-6.589844.933593-3.585938 2.441407-7.847656 3.691407-12.183594 3.566407 3.09375-3.867188 5.300781-8.367188 6.460938-13.183594 1.046874-4.292969-1.578126-8.621094-5.871094-9.671875-4.292969-1.050781-8.625 1.578125-9.671875 5.871094-.820313 3.671875-2.835938 6.96875-5.734375 9.367187-8.84375 7.226563-28.085938 8.28125-35.644532-.539062-4.535156-5.429688-4.9375-13.203125-.984374-19.070313 1.253906-1.949218 1.597656-4.351562.945312-6.574218-.652344-2.226563-2.238281-4.058594-4.347656-5.027344-7.804688-3.574219-16.199219-10.40625-14.140625-17.890625 1.734375-6.316407 9.875-11.988281 12.53125-13.261719 2.234375-.972656 3.90625-2.914062 4.535156-5.273438.628906-2.355468.148437-4.871093-1.308594-6.832031-3.835937-5.011719-5.277343-11.457031-3.941406-17.628906 1.574219-7.613281 6.828125-14.5 14.417969-18.886719 15.171875-8.769531 36.226562-4.910156 45.984375 8.421875 2.617187 3.535157 7.601562 4.292969 11.152343 1.695313 3.550782-2.597656 4.335938-7.578125 1.757813-11.144532-11.554687-15.796874-32.765625-22.679687-52.160156-18.480468.238281-1.867188.886719-3.65625 1.894531-5.242188 3.816406-5.890625 11.960938-7.464844 11.988281-7.472656 2.785157-.472656 5.113281-2.382812 6.125-5.023438 1.011719-2.636718.554688-5.613281-1.199219-7.828124-1.585937-1.957032-2.789062-4.199219-3.542968-6.601563-2.1875-7.226563-.34375-17.21875 7.417968-22.320313 11.289063-7.429687 25.75-5.285156 36.839844 5.46875 3.175782 3.074219 8.238282 2.996094 11.3125-.179687 3.078125-3.171875 2.996094-8.234375-.175781-11.3125-6.78125-6.726563-15.34375-11.378906-24.679687-13.40625 2.886718-6.863281 9.078124-11.777344 16.417968-13.035156 7.558594-1.449219 15.859375.621093 21.183594 5.09375v135.636719c-1.257812-.671876-2.554688-1.265626-3.882812-1.785157-4.125-1.578125-8.75.488281-10.328126 4.617188-1.578124 4.125.488282 8.75 4.613282 10.328125 2.824218 1.078125 8.335937 4.207031 9.601562 8.464844v68.925781c-2.742187 2.285156-8.355468 5.183593-13.804687 4.425781zm-105.203125 213.402344h-71v-53h71zm164 0h-72v-53h72zm163 0h-71v-53h71zm0 0" fill="url(#h)"/></svg>