<svg height="483pt" viewBox="-1 0 483 483.72102" width="483pt" xmlns="http://www.w3.org/2000/svg" xmlns:xlink="http://www.w3.org/1999/xlink"><linearGradient id="a"><stop offset="0" stop-color="#00efd1"/><stop offset="1" stop-color="#00acea"/></linearGradient><linearGradient id="b" gradientUnits="userSpaceOnUse" x1="242.859729" x2="242.859729" xlink:href="#a" y1="23.856223" y2="474.420223"/><linearGradient id="c" gradientUnits="userSpaceOnUse" x1="241.359729" x2="241.359729" xlink:href="#a" y1="23.856223" y2="474.420223"/><path d="m343.679688 381.855469c2.128906.019531 4.183593-.792969 5.722656-2.265625 1.539062-1.472656 2.421875-3.503906 2.457031-5.632813v-140.101562h24.378906c3.371094-.101563 6.335938-2.246094 7.492188-5.410157 1.152343-3.164062.265625-6.714843-2.246094-8.964843l-133.207031-115.710938c-3-2.617187-7.464844-2.632812-10.480469-.035156l-133.554687 115.644531c-2.53125 2.273438-3.425782 5.859375-2.257813 9.054688 1.144531 3.179687 4.121094 5.332031 7.5 5.421875h22.375v138.207031c-.019531 2.09375.796875 4.109375 2.265625 5.601562 1.46875 1.492188 3.472656 2.339844 5.566406 2.351563l203.914063 1.839844zm-100.652344-261.066407 111.796875 97.066407h-223.886719zm25.832031 244.476563-51-.476563v-57.933593h51zm16 .148437v-66.875c.03125-2.070312-.789063-4.0625-2.265625-5.511718-1.472656-1.453125-3.480469-2.234375-5.546875-2.171875h-67.289063c-2.074218-.066407-4.089843.714843-5.582031 2.164062-1.488281 1.449219-2.324219 3.441407-2.316406 5.519531v66.101563l-54-.5v-130.285156h188v132.027343zm0 0" fill="url(#b)"/><path d="m482.359375 155.195312c.007813-12.085937-6.46875-23.246093-16.960937-29.242187-10.496094-5.992187-23.398438-5.902344-33.804688.242187l-74.984375-74.976562c6.921875-11.347656 6.515625-25.707031-1.03125-36.652344-7.550781-10.941406-20.828125-16.417968-33.898437-13.976562-13.066407 2.4375-23.476563 12.335937-26.566407 25.265625h-106.5c-3.078125-12.886719-13.425781-22.773438-26.4375-25.257813-13.015625-2.484375-26.277343 2.894532-33.886719 13.742188-7.605468 10.847656-8.144531 25.148437-1.378906 36.535156l-75.699218 75.363281c-11.246094-6.667969-25.335938-6.226562-36.136719 1.140625-10.804688 7.363282-16.367188 20.316406-14.269531 33.222656 2.097656 12.902344 11.476562 23.425782 24.054687 26.992188v107.214844c-16.171875 4.578125-26.492187 20.382812-24.179687 37.03125 2.3125 16.648437 16.550781 29.039062 33.359374 29.035156 5.945313.003906 11.789063-1.578125 16.921876-4.582031l76.160156 76.175781c-6.925782 11.347656-6.527344 25.707031 1.015625 36.652344 7.546875 10.945312 20.824219 16.429687 33.894531 13.996094 13.066406-2.4375 23.480469-12.332032 26.578125-25.261719h106.5c3.089844 12.976562 13.554687 22.90625 26.675781 25.3125s26.425782-3.15625 33.925782-14.191407c7.5-11.03125 7.777343-25.449218.710937-36.765624l75.414063-75.867188c11.390624 6.582031 25.570312 5.925781 36.304687-1.675781 10.734375-7.601563 16.058594-20.757813 13.632813-33.6875-2.421876-12.925781-12.152344-23.257813-24.914063-26.453125v-106.664063c14.976563-3.769531 25.480469-17.226562 25.5-32.667969zm-16 0c0 9.765626-7.914063 17.679688-17.679687 17.679688-9.761719 0-17.679688-7.914062-17.679688-17.679688 0-9.761718 7.917969-17.679687 17.679688-17.679687 9.757812.011719 17.667968 7.921875 17.679687 17.679687zm-138.5-139.179687c9.765625 0 17.679687 7.917969 17.679687 17.679687 0 9.765626-7.917968 17.679688-17.679687 17.679688-9.765625 0-17.679687-7.914062-17.679687-17.679688.011718-9.757812 7.921874-17.667968 17.679687-17.679687zm-172 0c9.765625 0 17.679687 7.917969 17.679687 17.679687 0 9.765626-7.917968 17.679688-17.679687 17.679688-9.765625 0-17.679687-7.914062-17.679687-17.679688.011718-9.757812 7.921874-17.667968 17.679687-17.679687zm-139.5 139.179687c0-9.765624 7.917969-17.679687 17.679687-17.679687 9.765626.003906 17.679688 7.917969 17.679688 17.679687 0 9.765626-7.917969 17.679688-17.679688 17.679688-9.761718-.011719-17.667968-7.921875-17.679687-17.679688zm0 172c.046875-9.605468 7.722656-17.4375 17.328125-17.675781h.351562c9.765626 0 17.679688 7.917969 17.679688 17.679688 0 9.765625-7.917969 17.679687-17.683594 17.679687-9.761718-.003906-17.675781-7.917968-17.675781-17.683594zm139.5 140.5c-9.761719 0-17.679687-7.914062-17.679687-17.679687s7.917968-17.679687 17.679687-17.679687c9.765625 0 17.679687 7.917968 17.679687 17.679687-.011718 9.761719-7.921874 17.667969-17.679687 17.679687zm139.328125-25.839843h-106.652344c-2.585937-10.367188-9.941406-18.894531-19.816406-22.96875-9.878906-4.078125-21.105469-3.226563-30.25 2.300781l-75.984375-76c5.917969-9.335938 6.875-20.984375 2.558594-31.160156-4.316407-10.175782-13.355469-17.582032-24.183594-19.816406v-106.03125c10.777344-2.222657 19.789063-9.574219 24.128906-19.691407 4.34375-10.113281 3.464844-21.707031-2.351562-31.054687l75.472656-75.132813c9.140625 5.683594 20.441406 6.652344 30.414063 2.609375 9.972656-4.042968 17.410156-12.613281 20.011718-23.054687h106.652344c2.582031 10.375 9.941406 18.902343 19.828125 22.976562 9.882813 4.078125 21.113281 3.214844 30.257813-2.320312l74.859374 74.84375c-5.753906 9.1875-6.730468 20.585937-2.621093 30.617187s12.800781 17.46875 23.347656 19.976563v106.492187c-10.59375 2.519532-19.316406 10.015625-23.402344 20.109375-4.085937 10.09375-3.03125 21.542969 2.828125 30.722657l-75.304687 75.757812c-9.148438-5.417969-20.316407-6.191406-30.125-2.089844-9.808594 4.101563-17.101563 12.597656-19.667969 22.914063zm32.671875 25.839843c-9.761719 0-17.679687-7.914062-17.679687-17.679687s7.917968-17.679687 17.679687-17.679687c9.765625 0 17.679687 7.917968 17.679687 17.679687-.011718 9.761719-7.921874 17.667969-17.679687 17.679687zm138.5-140.5c0 9.765626-7.914063 17.679688-17.679687 17.679688-9.761719 0-17.679688-7.914062-17.679688-17.679688 0-9.761718 7.917969-17.679687 17.679688-17.679687 9.757812.011719 17.667968 7.921875 17.679687 17.679687zm0 0" fill="url(#c)"/></svg>