<svg height="486pt" viewBox="-62 0 486 486.279" width="486pt" xmlns="http://www.w3.org/2000/svg" xmlns:xlink="http://www.w3.org/1999/xlink"><linearGradient id="a"><stop offset="0" stop-color="#00efd1"/><stop offset="1" stop-color="#00acea"/></linearGradient><linearGradient id="b" gradientUnits="userSpaceOnUse" x1="181.526133" x2="181.526133" xlink:href="#a" y1="5.046" y2="470.102"/><linearGradient id="c" gradientUnits="userSpaceOnUse" x1="181.813133" x2="181.813133" xlink:href="#a" y1="5.046" y2="470.102"/><linearGradient id="d" gradientUnits="userSpaceOnUse" x1="178.813133" x2="178.813133" xlink:href="#a" y1="5.046" y2="470.102"/><linearGradient id="e" gradientUnits="userSpaceOnUse" x1="335.047133" x2="335.047133" xlink:href="#a" y1="5.046" y2="470.102"/><linearGradient id="f" gradientUnits="userSpaceOnUse" x1="27.731133" x2="27.731133" xlink:href="#a" y1="5.046" y2="470.102"/><path d="m179.347656 107.171875c-37.847656.628906-74.0625 15.511719-101.414062 41.675781-27.792969 26.402344-43.433594 60.816406-44.042969 96.882813-.597656 37.019531 13.898437 72.6875 40.144531 98.800781 21.1875 21.082031 32.234375 50.746094 30.308594 78.746094h-7.546875c-4.417969 0-8 3.582031-8 8 0 4.421875 3.582031 8 8 8h170.058594c4.417969 0 8-3.578125 8-8 0-4.417969-3.582031-8-8-8h-9.277344c-2.1875-29 8.402344-55.851563 30.867187-78.1875.023438-.023438.046876.019531.074219-.007813 26.222657-26.78125 40.664063-61.207031 40.664063-97 0-36.777343-14.777344-71.582031-41.613282-98.03125-28.664062-28.253906-67.09375-43.488281-108.222656-42.878906zm10.34375 132.863281c-4.351562 4.355469-11.410156 4.355469-15.761718.003906-4.351563-4.355468-4.351563-11.414062 0-15.765624 4.351562-4.351563 11.410156-4.351563 15.761718 0 2.109375 2.082031 3.296875 4.921874 3.296875 7.882812s-1.1875 5.800781-3.296875 7.878906zm87.433594 93.742188c-25.199219 25.082031-37.644531 56.5-35.570312 89.5h-16.742188v-113h30.691406c4.417969 0 8.308594-3.164063 8.308594-7.582032v-40.308593c10.71875-3.449219 18.207031-13.140625 18.84375-24.382813.636719-11.242187-5.714844-21.714844-15.972656-26.351562-10.261719-4.636719-22.316406-2.480469-30.335938 5.425781-10.582031 10.582031-10.597656 28.199219-.019531 38.199219h.144531c3.238282 4 7.339844 5.851562 11.339844 7.109375v31.890625h-31.308594c-4.417968 0-7.691406 4-7.691406 8.417968v120.582032h-19v-165.171875c12.8125-3.957031 20.808594-16.6875 18.808594-29.949219s-13.398438-23.066406-26.808594-23.066406-24.804688 9.804687-26.808594 23.066406c-2 13.261719 5.996094 25.992188 18.808594 29.949219v165.171875h-19v-120.582032c0-4.417968-3.273438-8.417968-7.691406-8.417968h-31.308594v-31.890625c4-1.257813 8.113281-3.109375 11.351562-7.109375h.074219c10.582031-10 10.621094-27.617188.039063-38.199219-10.640625-10.53125-27.796875-10.46875-38.359375.140625-6.738281 6.695312-9.492188 16.421875-7.265625 25.652344 2.226562 9.234375 9.117187 16.632812 18.164062 19.519531v40.308594c0 4.417969 3.894532 7.582031 8.3125 7.582031h30.683594v112.996094h-18.4375c1.886719-33-10.855469-66.007813-35.0625-90.097656-23.164062-23.0625-35.953125-54.554688-35.425781-87.238282.539062-31.75 14.410156-62.097656 39.070312-85.527344 24.4375-23.386718 56.804688-36.695312 90.628907-37.261718 36.808593-.503906 71.164062 13.078125 96.753906 38.300781 23.757812 23.421875 36.84375 54.132813 36.84375 86.59375 0 31.5625-12.804688 61.96875-36.058594 85.730469zm-13.738281-89.441406c-4.355469 4.34375-11.40625 4.34375-15.761719 0-4.351562-4.355469-4.355469-11.410157 0-15.761719 4.351562-4.355469 11.40625-4.355469 15.761719 0 4.351562 4.351562 4.351562 11.40625 0 15.761719zm-147.382813 0c-4.355468 4.351562-11.410156 4.351562-15.761718 0-4.355469-4.355469-4.355469-11.410157 0-15.761719 4.351562-4.355469 11.40625-4.355469 15.761718 0 4.347656 4.355469 4.347656 11.40625 0 15.765625zm0 0" fill="url(#b)"/><path d="m231.570312 470.277344h-99.515624c-4.417969 0-8 3.582031-8 8 0 4.421875 3.582031 8 8 8h99.515624c4.421876 0 8-3.578125 8-8 0-4.417969-3.578124-8-8-8zm0 0" fill="url(#c)"/><path d="m178.8125 68.640625c4.417969 0 8-3.582031 8-8v-52.640625c0-4.417969-3.582031-8-8-8s-8 3.582031-8 8v52.640625c0 4.417969 3.582031 8 8 8zm0 0" fill="url(#d)"/><path d="m350.058594 74.5625-40.710938 36.527344c-2.144531 1.90625-3.101562 4.8125-2.515625 7.617187.585938 2.808594 2.628907 5.085938 5.355469 5.972657 2.730469.886718 5.722656.246093 7.847656-1.679688l40.710938-36.527344c2.144531-1.90625 3.105468-4.8125 2.515625-7.617187-.585938-2.808594-2.628907-5.085938-5.355469-5.972657-2.726562-.886718-5.722656-.246093-7.847656 1.679688zm0 0" fill="url(#e)"/><path d="m47.238281 120.210938c3.261719 0 6.199219-1.980469 7.417969-5.007813 1.222656-3.027344.484375-6.488281-1.867188-8.753906l-39.015624-37.601563c-2.046876-2.03125-5.03125-2.804687-7.808594-2.019531s-4.917969 3.007813-5.597656 5.8125c-.683594 2.804687.199218 5.757813 2.308593 7.730469l39.015625 37.597656c1.488282 1.441406 3.476563 2.242188 5.546875 2.242188zm0 0" fill="url(#f)"/></svg>