<svg height="434pt" viewBox="-30 0 434 434" width="434pt" xmlns="http://www.w3.org/2000/svg" xmlns:xlink="http://www.w3.org/1999/xlink"><linearGradient id="a"><stop offset="0" stop-color="#00efd1"/><stop offset="1" stop-color="#00acea"/></linearGradient><linearGradient id="b" gradientUnits="userSpaceOnUse" x1="187.111" x2="187.111" xlink:href="#a" y1="-5.287" y2="453.798"/><linearGradient id="c" gradientUnits="userSpaceOnUse" x1="211.46" x2="211.46" xlink:href="#a" y1="-5.287" y2="453.798"/><linearGradient id="d" gradientUnits="userSpaceOnUse" x1="188.335" x2="188.335" xlink:href="#a" y1="-5.287" y2="453.798"/><linearGradient id="e" gradientUnits="userSpaceOnUse" x1="249.722" x2="249.722" xlink:href="#a" y1="-5.287" y2="453.798"/><linearGradient id="f" gradientUnits="userSpaceOnUse" x1="207.222" x2="207.222" xlink:href="#a" y1="-5.287" y2="453.798"/><path d="m326.445312 0h-253.03125c-26.542968.0390625-48.074218 21.507812-48.191406 48.054688v21.945312h-17.222656c-4.417969 0-8 3.582031-8 8s3.582031 8 8 8h17.222656v49h-17.222656c-4.417969 0-8 3.582031-8 8s3.582031 8 8 8h17.222656v58h-17.222656c-4.417969 0-8 3.582031-8 8s3.582031 8 8 8h17.222656v58h-17.222656c-4.417969 0-8 3.582031-8 8s3.582031 8 8 8h17.222656v49h-17.222656c-4.417969 0-8 3.582031-8 8s3.582031 8 8 8h17.222656v21.945312c.117188 26.546876 21.648438 48.015626 48.191406 48.054688h253.03125c26.464844-.074219 47.855469-21.589844 47.777344-48.054688v-337.890624c.078125-26.464844-21.3125-47.9804692-47.777344-48.054688zm31.777344 385.945312c.042969 8.46875-3.285156 16.601563-9.246094 22.617188-5.957031 6.011719-14.066406 9.40625-22.53125 9.4375h-253.03125c-17.710937-.03125-32.085937-14.339844-32.191406-32.054688v-21.945312h17.054688c4.417968 0 8-3.582031 8-8s-3.582032-8-8-8h-17.054688v-49h17.054688c4.417968 0 8-3.582031 8-8s-3.582032-8-8-8h-17.054688v-58h17.054688c4.417968 0 8-3.582031 8-8s-3.582032-8-8-8h-17.054688v-58h17.054688c4.417968 0 8-3.582031 8-8s-3.582032-8-8-8h-17.054688v-49h17.054688c4.417968 0 8-3.582031 8-8s-3.582032-8-8-8h-17.054688v-21.945312c.105469-17.714844 14.480469-32.023438 32.191406-32.054688h253.03125c8.464844.03125 16.574219 3.425781 22.53125 9.4375 5.960938 6.015625 9.289063 14.148438 9.246094 22.617188zm0 0" fill="url(#b)"/><path d="m297.816406 344h-172.710937c-4.417969 0-8 3.582031-8 8s3.582031 8 8 8h172.710937c4.417969 0 8-3.582031 8-8s-3.582031-8-8-8zm0 0" fill="url(#c)"/><path d="m164.757812 219.21875c2.636719 0 4.679688-.910156 5.277344-3.191406l4.558594-16.027344h27.480469l4.558593 16.027344c.601563 2.28125 2.640626 3.15625 5.28125 3.15625 4.199219 0 9.839844-2.742188 9.839844-6.464844-.035156-.402344-.113281-.800781-.238281-1.1875l-23.160156-75.472656c-1.082031-3.601563-5.519531-5.277344-10.082031-5.277344-4.4375 0-8.878907 1.679688-9.957032 5.277344l-23.160156 75.480468c-.117188.390626-.195312.792969-.242188 1.199219 0 3.839844 5.640626 6.480469 9.84375 6.480469zm23.515626-68.058594 10.441406 36.839844h-20.878906zm0 0" fill="url(#d)"/><path d="m249.722656 219.21875c3.839844 0 7.5-1.679688 7.5-4.921875v-78c0-3.359375-3.660156-4.800781-7.5-4.800781-3.960937 0-7.5 1.441406-7.5 4.800781v78c0 3.242187 3.539063 4.921875 7.5 4.921875zm0 0" fill="url(#e)"/><path d="m314.222656 92c0-4.417969-3.582031-8-8-8h-198c-4.417968 0-8 3.582031-8 8v162c0 4.417969 3.582032 8 8 8h198c4.417969 0 8-3.582031 8-8zm-16 154h-182v-146h182zm0 0" fill="url(#f)"/></svg>