<svg height="465pt" viewBox="0 -68 465.96681 465" width="465pt" xmlns="http://www.w3.org/2000/svg" xmlns:xlink="http://www.w3.org/1999/xlink"><linearGradient id="a" gradientUnits="userSpaceOnUse" x1="232.979812" x2="232.979812" y1="-50.938595" y2="390.223405"><stop offset="0" stop-color="#00efd1"/><stop offset="1" stop-color="#00acea"/></linearGradient><path d="m301.386719.484375c-88.273438 0-160.53125 69.859375-164.402344 157.199219l-39.269531-.683594-.246094-14.210938c-.078125-4.308593-3.550781-7.785156-7.859375-7.859374l-81.46875-1.421876c-3.4375-.058593-6.527344 2.082032-7.679687 5.320313-1.148438 3.238281-.105469 6.851563 2.601562 8.972656l20.488281 16.074219-19.671875 15.164062c-2.691406 2.074219-3.7812498 5.621094-2.710937 8.847657 1.066406 3.230469 4.058593 5.429687 7.457031 5.488281l81.46875 1.417969h.140625c2.144531 0 4.203125-.859375 5.707031-2.390625s2.328125-3.601563 2.292969-5.746094l-.238281-13.652344 39.042968.679688c4.5 86.757812 76.5 155.953125 164.351563 155.953125 90.746094 0 164.578125-73.828125 164.578125-164.578125 0-90.746094-73.835938-164.574219-164.582031-164.574219zm-269.660157 177.289063 9.734376-7.5c1.957031-1.507813 3.105468-3.832032 3.117187-6.300782s-1.117187-4.804687-3.058594-6.328125l-9.839843-7.722656 49.921874.867187.484376 27.863282zm269.660157 135.867187c-78.9375 0-143.679688-61.878906-148.300781-139.675781l25.136718.4375c5.027344 66.480468 61.898438 116.980468 128.507813 114.109375 66.609375-2.871094 118.925781-58.078125 118.210937-124.746094-.710937-66.667969-54.195312-120.742187-120.851562-122.191406-66.652344-1.445313-122.433594 50.253906-126.039063 116.828125l-25.070312-.441406c3.71875-78.640626 68.859375-141.476563 148.398437-141.476563 81.925782 0 148.578125 66.652344 148.578125 148.578125s-66.644531 148.578125-148.570312 148.578125zm-85.261719-138.578125c5.324219 45.570312 45.523438 78.910156 91.292969 75.71875s80.949219-41.792969 79.894531-87.660156c-1.054688-45.871094-37.972656-82.8125-83.839844-83.894532-45.867187-1.085937-84.492187 34.066407-87.714844 79.835938l-21.699218-.378906c3.4375-57.71875 51.90625-102.378906 109.710937-101.097656 57.800781 1.285156 104.242188 48.054687 105.109375 105.867187.871094 57.8125-44.136718 105.960937-101.875 108.984375-57.742187 3.023438-107.53125-40.160156-112.703125-97.75zm39.746094.691406c5.554687 23.621094 28.25 39.070313 52.261718 35.570313 24.011719-3.5 41.355469-24.78125 39.9375-49.003907-1.417968-24.222656-21.128906-43.335937-45.382812-44.007812-24.257812-.675781-44.996094 17.316406-47.753906 41.425781l-23.152344-.402343c3.074219-36.851563 34.367188-64.910157 71.335938-63.957032s66.777343 30.578125 67.953124 67.542969c1.171876 36.960937-26.691406 68.421875-63.527343 71.722656-36.832031 3.296875-69.84375-22.714843-75.253907-59.296875zm73.847656 1.289063c-4.890625 11.5625-16.316406 18.992187-28.867188 18.773437-12.550781-.21875-23.710937-8.046875-28.191406-19.773437zm-58.675781-17.027344c2.496093-15.039063 15.632812-25.980469 30.878906-25.714844 15.242187.265625 27.992187 11.660157 29.964844 26.777344zm0 0" fill="url(#a)"/></svg>