<svg height="495pt" viewBox="0 -113 495.92368 495" width="495pt" xmlns="http://www.w3.org/2000/svg" xmlns:xlink="http://www.w3.org/1999/xlink"><linearGradient id="a"><stop offset="0" stop-color="#00efd1"/><stop offset="1" stop-color="#00acea"/></linearGradient><linearGradient id="b" gradientUnits="userSpaceOnUse" x1="213.357107" x2="213.357107" xlink:href="#a" y1="-103.6119" y2="361.4441"/><linearGradient id="c" gradientUnits="userSpaceOnUse" x1="184.340107" x2="184.340107" xlink:href="#a" y1="-103.6119" y2="361.4441"/><linearGradient id="d" gradientUnits="userSpaceOnUse" x1="213.646107" x2="213.646107" xlink:href="#a" y1="-103.6119" y2="361.4441"/><linearGradient id="e" gradientUnits="userSpaceOnUse" x1="282.567107" x2="282.567107" xlink:href="#a" y1="-103.6119" y2="361.4441"/><linearGradient id="f" gradientUnits="userSpaceOnUse" x1="311.584107" x2="311.584107" xlink:href="#a" y1="-103.6119" y2="361.4441"/><linearGradient id="g" gradientUnits="userSpaceOnUse" x1="282.278107" x2="282.278107" xlink:href="#a" y1="-103.6119" y2="361.4441"/><linearGradient id="h" gradientUnits="userSpaceOnUse" x1="247.962107" x2="247.962107" xlink:href="#a" y1="-103.6119" y2="361.4441"/><path d="m215.605469 90.691406c1.375.246094 2.769531.367188 4.167969.367188 2.503906-.011719 4.992187-.375 7.394531-1.085938 2.757812-.789062 4.882812-2.992187 5.570312-5.777344.6875-2.78125-.167969-5.722656-2.242187-7.703124-2.074219-1.980469-5.046875-2.699219-7.796875-1.882813-1.382813.4375-2.847657.554687-4.28125.332031-4.226563-.753906-7.816407-5.398437-8.730469-11.308594-.679688-4.363281-4.765625-7.355468-9.132812-6.675781-4.367188.675781-7.355469 4.765625-6.679688 9.128907.648438 4.246093 2.117188 8.328124 4.324219 12.011718-1.550781 1.59375-2.691407 3.535156-3.332031 5.664063-.773438 2.6875-.683594 5.550781.25 8.1875 1.28125 3.722656 5.074218 5.957031 8.949218 5.269531 3.871094-.683594 6.667969-4.085938 6.589844-8.019531 1.589844.679687 3.25 1.183593 4.949219 1.492187zm0 0" fill="url(#b)"/><path d="m209.878906 176.222656c-2.664062-3.523437-7.683594-4.21875-11.207031-1.550781-3.105469 2.410156-6.945313 3.6875-10.875 3.609375-1.882813-.113281-3.726563-.589844-5.429687-1.398438-.515626-.363281-1.070313-.667968-1.65625-.898437-3.957032-2.492187-6.734376-6.480469-7.699219-11.058594-.570313-2.816406-2.605469-5.109375-5.332031-6.011719-2.726563-.902343-5.730469-.273437-7.863282 1.652344-2.136718 1.921875-3.074218 4.839844-2.464844 7.648438.941407 4.488281 2.789063 8.738281 5.4375 12.484375-2.125 1.921875-3.722656 4.355469-4.648437 7.070312-2.113281 6.335938-.085937 13.234375 5.289063 18.007813 3.304687 2.933594 8.363281 2.628906 11.296874-.675782 2.929688-3.304687 2.628907-8.359374-.675781-11.292968-.316406-.261719-.566406-.59375-.734375-.96875.621094-.75 1.511719-1.230469 2.480469-1.332032 3.5 1.597657 7.269531 2.53125 11.113281 2.746094.566406.03125 1.125.046875 1.675782.046875 7.148437-.109375 14.074218-2.519531 19.75-6.875 3.519531-2.667969 4.210937-7.683593 1.542968-11.203125zm0 0" fill="url(#c)"/><path d="m209.941406 197.691406c-4.167968-1.40625-8.691406.816406-10.125 4.972656-1.433594 4.160157.761719 8.699219 4.910156 10.15625 4.867188 1.675782 6.789063 3.421876 7.210938 4.066407-.058594.632812-.21875 1.246093-.476562 1.824219-2.925782 3.3125-2.609376 8.371093.707031 11.296874 3.3125 2.921876 8.371093 2.601563 11.292969-.714843 2.578124-3.160157 4.121093-7.035157 4.429687-11.105469.488281-5.175781-1.191406-14.71875-17.949219-20.496094zm0 0" fill="url(#d)"/><path d="m280.316406 90.691406c1.703125-.308594 3.359375-.8125 4.949219-1.492187-.078125 3.933593 2.71875 7.335937 6.59375 8.019531 3.871094.6875 7.667969-1.546875 8.945313-5.269531.9375-2.632813 1.023437-5.5.25-8.1875-.636719-2.128907-1.78125-4.070313-3.332032-5.664063 2.210938-3.683594 3.679688-7.761718 4.328125-12.011718.675781-4.363282-2.316406-8.453126-6.679687-9.128907-4.367188-.679687-8.457032 2.3125-9.132813 6.675781-.917969 5.902344-4.507812 10.554688-8.734375 11.308594-1.433594.21875-2.894531.105469-4.277344-.332031-4.21875-1.164063-8.585937 1.277344-9.804687 5.480469-1.222656 4.199218 1.15625 8.601562 5.339844 9.882812 2.402343.710938 4.890625 1.074219 7.394531 1.085938 1.394531 0 2.789062-.121094 4.160156-.367188zm0 0" fill="url(#e)"/><path d="m332.390625 158.75c-4.324219-.910156-8.566406 1.859375-9.472656 6.183594-.964844 4.578125-3.746094 8.566406-7.703125 11.054687-.585938.234375-1.140625.539063-1.652344.902344-1.703125.808594-3.546875 1.285156-5.429688 1.398437-3.933593.070313-7.769531-1.203124-10.878906-3.609374-3.523437-2.667969-8.539062-1.972657-11.207031 1.546874-2.667969 3.523438-1.972656 8.542969 1.550781 11.210938 5.671875 4.355469 12.597656 6.765625 19.75 6.875.546875 0 1.105469-.015625 1.671875-.046875 3.84375-.214844 7.613281-1.148437 11.113281-2.746094.945313.105469 1.824219.550781 2.46875 1.253907-.121093.417968-.371093.785156-.722656 1.046874-3.304687 2.929688-3.605468 7.988282-.671875 11.292969 2.929688 3.304688 7.988281 3.605469 11.292969.675781 5.378906-4.773437 7.402344-11.671874 5.289062-18.011718-.921874-2.710938-2.523437-5.144532-4.648437-7.070313 2.648437-3.742187 4.496094-7.992187 5.4375-12.480469.910156-4.328124-1.863281-8.570312-6.1875-9.476562zm0 0" fill="url(#f)"/><path d="m285.984375 197.691406c-11.59375 4-18.808594 12.773438-17.949219 21.84375.402344 3.640625 1.953125 7.058594 4.425782 9.757813 2.921874 3.316406 7.980468 3.636719 11.296874.714843 3.316407-2.925781 3.628907-7.984374.703126-11.296874-.191407-.207032-.355469-.4375-.484376-.691407.195313-.835937 2.175782-3.460937 7.21875-5.199219 4.152344-1.457031 6.347657-5.992187 4.914063-10.152343-1.433594-4.160157-5.957031-6.382813-10.125-4.972657zm0 0" fill="url(#g)"/><path d="m464.347656 166.222656c16.40625-.015625 30.074219-12.578125 31.460938-28.925781 1.390625-16.34375-9.957032-31.035156-26.125-33.816406-16.167969-2.785157-31.777344 7.269531-35.929688 23.140625h-61.171875c-3.925781-6.71875-9.449219-12.363282-16.078125-16.433594.410156-3.523438.277344-7.085938-.402344-10.566406h54.417969c4.417969 0 8.445313-3.375 8.445313-7.792969v-40.207031h9.480468c1.503907 5.414062 4.335938 10.367187 8.242188 14.40625 12.34375 12.332031 32.34375 12.324218 44.679688-.015625 12.335937-12.339844 12.335937-32.34375 0-44.683594-12.335938-12.339844-32.335938-12.34375-44.679688-.015625-3.902344 4.003906-6.738281 8.925781-8.242188 14.308594h-17.925781c-4.417969 0-7.558593 3.683594-7.558593 8.101562v39.898438h-56.199219c-2.167969-1.847656-4.550781-3.433594-7.09375-4.726563.347656-.871093.652343-1.699219.925781-2.597656 3.785156-12.515625 1.039062-30.445313-13.9375-40.300781-4.714844-3.113282-10.003906-5.246094-15.558594-6.269532-3.304687-14.003906-15.554687-25.472656-31.429687-28.519531-11.203125-2.152343-23.195313.492188-33.246094 7.089844-9.285156-6.695313-20.921875-9.253906-32.160156-7.074219-14.730469 2.632813-26.402344 13.914063-29.535157 28.546875-5.515624 1.039063-10.773437 3.167969-15.457031 6.261719-14.976562 9.855469-17.722656 27.808594-13.933593 40.324219.269531.894531.578124 1.671875.921874 2.542969-2.542968 1.289062-4.925781 2.875-7.097656 4.722656h-56.199218v-39.898438c0-4.417968-3.136719-8.101562-7.554688-8.101562h-17.929688c-1.503906-5.382813-4.335937-10.300782-8.238281-14.300782-12.355469-12.34375-32.382812-12.335937-44.730469.019532-12.34375 12.355468-12.335937 32.382812.019532 44.730468 5.878906 5.917969 13.875 9.25 22.214844 9.25 8.34375.003907 16.339843-3.324218 22.21875-9.242187v-.046875c3.972656-4.035156 6.898437-8.984375 8.515624-14.410156h9.484376v40.207031c0 4.417969 4.027343 7.792969 8.445312 7.792969h54.417969c-.679688 3.480468-.816407 7.042968-.402344 10.566406-6.628906 4.070312-12.152344 9.714844-16.078125 16.433594h-61.171875c-3.625-13.851563-16.109375-23.535156-30.425781-23.601563-14.320313-.066406-26.890625 9.503907-30.644532 23.320313-3.75 13.820312 2.261719 28.433594 14.648438 35.617187 12.382812 7.179688 28.050781 5.136719 38.183594-4.980469 3.976562-3.964843 6.824218-8.921874 8.238281-14.355468h55.824219c-.761719 6.671875.277344 13.425781 3 19.5625-2.863282 2.171875-5.46875 4.667968-7.761719 7.4375h-27.828125c-4.417969 0-8.445312 3.375-8.445312 7.792968v40.207032h-9.484376c-1.5-5.414063-4.332031-10.367188-8.238281-14.40625-12.335937-12.285156-32.289062-12.257813-44.59375.0625-12.300781 12.316406-12.300781 32.273437 0 44.589844 12.304688 12.320312 32.257813 12.347656 44.59375.0625 3.902344-4.003907 6.734375-8.925782 8.238281-14.308594h17.929688c4.417969 0 7.554688-3.683594 7.554688-8.101563v-39.898437h13.234374c-.957031 10 5.160157 20.949218 16.617188 28.34375-3.46875 10.460937-1.199219 21.972656 5.976562 30.335937 7.074219 8.253907 18.082032 11.878907 29.148438 11.878907 5.722656-.007813 11.40625-.976563 16.8125-2.867188 4.5 2.632812 9.539062 4.214844 14.738281 4.625 5.046875.390625 10.113281-.347656 14.839844-2.160156 4.898437 7.460937 10.980469 11.726562 18.148437 12.714844 1.359376.191406 2.734376.285156 4.109376.285156 7.0625-.101563 13.914062-2.425782 19.574218-6.644532 6.332032 4.175782 13.71875 6.472657 21.300782 6.628907 1.332031 0 2.664062-.089844 3.984374-.269531 8.996094-1.238282 15.214844-7.472657 19.015626-12.871094 4.929687 1.886718 10.210937 2.675781 15.476562 2.308594 5.3125-.410157 10.464844-2.011719 15.070312-4.691407 5.453126 1.925781 11.195313 2.910157 16.980469 2.914063 11.066407 0 22.074219-3.652344 29.148438-11.902344 7.175781-8.339844 9.445312-19.839844 5.976562-30.285156 11.453125-7.394532 17.570313-18.34375 16.613281-28.34375h13.234376v39.898437c0 4.417969 3.140624 8.101563 7.558593 8.101563h17.925781c1.503907 5.382812 4.339844 10.300781 8.242188 14.300781 12.378906 12.261719 32.335938 12.222656 44.671875-.085937 12.332031-12.308594 12.410156-32.265626.175781-44.667969-12.328125-12.328125-32.574218-12.332031-44.574218 0v.046875c-3.96875 4.035156-6.894532 8.976562-8.515626 14.398437h-9.484374v-40.199219c0-4.417968-4.023438-7.792968-8.441407-7.792968h-27.832031c-2.292969-2.769532-4.898438-5.265625-7.761719-7.4375 2.722657-6.136719 3.757813-12.890625 3-19.5625h55.824219c1.414062 5.433594 4.257812 10.390625 8.238281 14.355468 5.925781 5.933594 13.972657 9.261719 22.359375 9.246094zm-11.042968-42.644531c6.097656-6.097656 15.984374-6.097656 22.085937 0 6.097656 6.097656 6.097656 15.984375 0 22.082031-6.101563 6.101563-15.988281 6.101563-22.085937 0-6.097657-6.097656-6.097657-15.984375 0-22.082031zm-5.304688-90.898437c6.097656-6.097657 15.984375-6.097657 22.082031 0 6.097657 6.097656 6.097657 15.984374 0 22.082031-6.097656 6.097656-15.984375 6.097656-22.082031 0-6.097656-6.097657-6.097656-15.984375 0-22.082031zm-400.074219 22.085937c-5.269531 5.265625-13.523437 6.078125-19.714843 1.9375-6.195313-4.136719-8.601563-12.074219-5.75-18.957031 2.847656-6.878906 10.164062-10.789063 17.46875-9.335938 7.304687 1.449219 12.570312 7.863282 12.570312 15.3125.011719 4.144532-1.636719 8.121094-4.574219 11.042969zm-5.308593 90.898437c-5.265626 5.265626-13.519532 6.082032-19.714844 1.941407-6.191406-4.136719-8.601563-12.074219-5.75-18.957031 2.851562-6.882813 10.164062-10.792969 17.46875-9.339844 7.308594 1.453125 12.570312 7.863281 12.570312 15.3125 0 4.140625-1.644531 8.113281-4.574218 11.039062zm5.308593 90.898438c-6.097656 6.101562-15.984375 6.097656-22.082031 0s-6.097656-15.984375 0-22.082031c6.097656-6.097657 15.984375-6.097657 22.082031 0 6.097657 6.097656 6.097657 15.984375 0 22.082031zm400.074219-22.082031c5.265625-5.265625 13.519531-6.078125 19.714844-1.9375 6.191406 4.136719 8.601562 12.074219 5.75 18.957031-2.851563 6.882812-10.167969 10.789062-17.472656 9.335938-7.304688-1.453126-12.566407-7.863282-12.566407-15.3125-.011719-4.144532 1.632813-8.121094 4.574219-11.046876zm-223.339844 38.164062c-5.183594-.714843-8.597656-8.28125-9.71875-10.769531-.957031-2.117188-2.785156-3.714844-5.015625-4.378906-2.226562-.660156-4.632812-.320313-6.589843.933594-3.519532 2.394531-7.6875 3.644531-11.945313 3.582031 3.101563-3.871094 5.308594-8.378907 6.46875-13.203125 1.050781-4.289063-1.578125-8.621094-5.871094-9.671875-4.292969-1.046875-8.621093 1.582031-9.671875 5.875-.816406 3.671875-2.835937 6.964843-5.730468 9.367187-8.847657 7.226563-28.085938 8.28125-35.648438-.539062-4.535156-5.433594-4.933594-13.203125-.984375-19.074219 1.253906-1.949219 1.601563-4.347656.949219-6.574219-.652344-2.226562-2.242188-4.058594-4.347656-5.023437-7.808594-3.578125-16.203126-10.410157-14.144532-17.890625 1.734375-6.316406 9.871094-11.988282 12.53125-13.261719 2.238282-.972656 3.90625-2.917969 4.535156-5.273437.628907-2.359376.148438-4.875-1.304687-6.835938-3.835937-5.011719-5.277344-11.457031-3.945313-17.625 1.574219-7.617188 6.832032-14.5 14.421876-18.886719 15.167968-8.769531 36.226562-4.914062 45.980468 8.417969 2.617188 3.539062 7.601563 4.296875 11.152344 1.695312 3.550781-2.597656 4.339844-7.574218 1.761719-11.140624-11.558594-15.800782-32.769531-22.683594-52.164063-18.480469.238282-1.867188.886719-3.65625 1.894532-5.246094 3.820312-5.890625 11.960937-7.464844 11.988281-7.46875 2.785156-.476563 5.113281-2.386719 6.125-5.023437 1.011719-2.640626.554687-5.617188-1.199219-7.832032-1.585938-1.957031-2.789062-4.195312-3.542969-6.597656-2.1875-7.230469-.339843-17.21875 7.417969-22.324219 11.289062-7.429687 25.75-5.28125 36.84375 5.46875 3.171875 3.074219 8.238281 2.996094 11.3125-.175781s2.996094-8.238281-.175781-11.3125c-6.808594-6.75-15.40625-11.410156-24.777344-13.429688 2.671875-6.851562 8.753906-11.796874 16.011719-13.011718 7.453125-1.433594 15.410156.589844 20.683594 5.074218v135.144532c-1.300782-.640625-2.324219-1.0625-2.882813-1.277344-4.125-1.578125-8.75.488281-10.328125 4.613281-1.582031 4.128907.484375 8.753907 4.613281 10.332031 2.328125.890626 6.5 3.179688 8.597657 6.347657v71.074219c-2.59375 2.246093-7.820313 5.15625-13.300782 4.402343zm134.710938-49.472656c-2.109375.964844-3.695313 2.796875-4.347656 5.023437-.652344 2.226563-.304688 4.625.949218 6.574219 3.949219 5.871094 3.546875 13.640625-.988281 19.074219-7.558594 8.820312-26.796875 7.765625-35.644531.539062-2.898438-2.402343-4.914063-5.695312-5.734375-9.367187-1.046875-4.292969-5.378907-6.921875-9.667969-5.871094-4.292969 1.046875-6.921875 5.378907-5.875 9.667969 1.160156 4.816406 3.363281 9.316406 6.453125 13.179688-4.574219.171874-9.085937-1.070313-12.925781-3.558594-1.957032-1.253906-4.363282-1.59375-6.59375-.929688-2.226563.660156-4.054688 2.257813-5.011719 4.375-1.546875 3.425782-5.777344 10.085938-10.722656 10.769532-5.84375.804687-12.363281-2.398438-15.300781-4.589844v-66.5625c.882812-1.691406 1.125-3.640625.6875-5.5-.183594-.796875-.414063-1.582032-.6875-2.355469v-28.296875c1.101562-1.582031 1.59375-3.511719 1.378906-5.425781-.082032-.683594-.042969-1.375.109375-2.042969.925781-3.933594 6.179687-7.214844 10.402343-8.828125 2.6875-1.011719 4.628907-3.382813 5.085938-6.214844.460938-2.835937-.636719-5.695312-2.867188-7.5-2.234374-1.804687-5.261718-2.273437-7.9375-1.230469-2.128906.820313-4.191406 1.804688-6.167968 2.941407v-94.539063c6.851562-4.957031 15.121094-7.03125 22.683594-5.578125 8.070312 1.550781 14.703124 6.703125 17.667968 13.082031-9.238281 2.0625-17.710937 6.695313-24.433594 13.359376-3.171874 3.074218-3.25 8.140624-.175781 11.3125 3.074219 3.175781 8.140625 3.253906 11.3125.179687 11.089844-10.753906 25.550781-12.902344 36.84375-5.46875 7.757813 5.097656 9.601563 15.09375 7.414063 22.320313-.753906 2.402343-1.953125 4.644531-3.539063 6.601562-1.765625 2.199219-2.234375 5.171875-1.234375 7.8125 1 2.636719 3.320313 4.550781 6.101563 5.03125.082031.015625 8.226562 1.589844 12.046875 7.480469 1.007812 1.585937 1.652344 3.375 1.894531 5.242187-19.402344-4.199218-40.605469 2.683594-52.164063 18.480469-2.578124 3.566406-1.789062 8.546875 1.761719 11.144531s8.53125 1.839844 11.152344-1.695312c9.753906-13.335938 30.8125-17.191406 45.980469-8.421875 7.589844 4.386719 12.847656 11.273437 14.421875 18.886719 1.332031 6.171874-.109375 12.613281-3.945313 17.628906-1.453125 1.957031-1.9375 4.476562-1.308594 6.832031.628907 2.359375 2.300782 4.300781 4.539063 5.273437 2.65625 1.277344 10.800781 6.949219 12.53125 13.261719 2.050781 7.492188-6.335937 14.324219-14.144531 17.902344zm0 0" fill="url(#h)"/></svg>